<?xml version="1.0" encoding="UTF-8" standalone="no"?>
<svg
   xmlns:dc="http://purl.org/dc/elements/1.1/"
   xmlns:cc="http://creativecommons.org/ns#"
   xmlns:rdf="http://www.w3.org/1999/02/22-rdf-syntax-ns#"
   xmlns:svg="http://www.w3.org/2000/svg"
   xmlns="http://www.w3.org/2000/svg"
   xmlns:sodipodi="http://sodipodi.sourceforge.net/DTD/sodipodi-0.dtd"
   xmlns:inkscape="http://www.inkscape.org/namespaces/inkscape"
   version="1.1"
   width="308.7612359841165"
   height="304.915625"
   viewBox="0 0 1000 1000"
   xml:space="preserve"
   id="svg62"
   sodipodi:docname="mylogo.svg"
   inkscape:version="1.0.2-2 (e86c870879, 2021-01-15)"><metadata
   id="metadata66"><rdf:RDF><cc:Work
       rdf:about=""><dc:format>image/svg+xml</dc:format><dc:type
         rdf:resource="http://purl.org/dc/dcmitype/StillImage" /><dc:title></dc:title></cc:Work></rdf:RDF></metadata><sodipodi:namedview
   pagecolor="#ffffff"
   bordercolor="#666666"
   borderopacity="1"
   objecttolerance="10"
   gridtolerance="10"
   guidetolerance="10"
   inkscape:pageopacity="0"
   inkscape:pageshadow="2"
   inkscape:window-width="1920"
   inkscape:window-height="1046"
   id="namedview64"
   showgrid="false"
   inkscape:zoom="1.1737973"
   inkscape:cx="445.88685"
   inkscape:cy="166.09848"
   inkscape:window-x="-11"
   inkscape:window-y="-11"
   inkscape:window-maximized="1"
   inkscape:current-layer="svg62" />
<desc
   id="desc39">Created with Fabric.js 3.5.0</desc>
<defs
   id="defs41">
<clipPath
   clipPathUnits="userSpaceOnUse"
   id="clipPath70"><circle
     style="opacity:0.5;fill:#00ff00;fill-rule:evenodd;stroke-width:3.72016"
     id="circle72"
     cx="9.0748663"
     cy="-6.7070618"
     r="385.07501" /></clipPath></defs>

<g
   transform="matrix(0.25,0,0,0.25,95.480666,97.353264)"
   id="703225"
   clip-path="url(#clipPath70)">
<g
   vector-effect="non-scaling-stroke"
   id="g59">
		<g
   id="g47">
</g>
		<g
   transform="matrix(2.1875,0,0,2.1875,0,2e-4)"
   id="tight-bounds">
<path
   style="opacity:1;fill:#0080ff;fill-rule:nonzero;stroke:none;stroke-width:1;stroke-linecap:butt;stroke-linejoin:miter;stroke-miterlimit:10;stroke-dasharray:none;stroke-dashoffset:0"
   transform="translate(-160,-180.0001)"
   d="m 20.961,227.22 3.726,4.658 -1.863,-6.056 c -0.466,-2.795 -3.726,0.466 -1.863,1.398 m 4.192,-2.795 c 1.397,2.329 2.795,4.658 2.795,6.987 0,3.261 2.795,4.658 5.123,5.589 -3.261,-3.726 -5.124,-13.974 -7.918,-12.576 M 204.017,26.929 c 7.918,0 15.371,-0.932 23.756,0.931 20.495,5.124 37.729,15.371 49.374,29.811 l 32.606,52.169 c 1.397,13.042 4.192,27.482 3.726,43.319 3.261,0 2.795,-4.658 6.521,-5.59 -3.726,9.316 -5.59,20.961 -6.521,34.469 -2.329,-7.453 0,-18.632 0.466,-24.687 -3.261,5.124 -5.124,1.397 -5.124,-0.932 0.466,-3.726 -1.397,-3.261 -2.795,-4.658 -5.124,-4.658 -8.384,-9.782 -12.11,-17.7 2.329,-6.055 2.795,-14.905 -4.658,-19.563 -2.329,-1.397 -5.124,-3.726 -6.521,-7.453 -1.863,-5.124 -5.124,-11.179 -4.193,-19.097 0.466,-2.329 -6.987,5.124 -11.179,1.863 -18.166,-12.576 -36.332,-27.016 -58.224,-39.127 -11.645,0 -20.029,-4.192 -24.221,-9.316 -3.726,-4.658 -0.932,-10.713 4.658,-11.179 3.261,0 6.987,-0.932 9.782,0.932 0.466,-1.863 2.329,-4.192 4.657,-4.192 m -46.113,-10.714 0.932,0.466 c 4.658,0.932 6.987,7.453 12.11,5.124 0,3.261 0.466,6.521 -0.466,8.85 -1.397,3.726 -5.59,3.726 -8.85,3.726 C 130.422,32.518 112.256,45.56 93.159,56.739 88.035,60 82.446,62.329 78.253,66.521 58.224,85.153 36.332,102.387 31.208,136.856 l -4.192,38.195 c -0.466,4.192 -5.124,8.384 -4.192,13.508 l 3.26,22.824 c -3.261,-3.261 -5.124,0.932 -4.192,2.795 0.466,1.397 2.329,6.055 5.124,1.863 3.726,6.987 7.453,20.495 12.576,26.55 15.837,18.632 36.332,35.4 53.101,52.169 4.192,-0.932 7.453,-0.932 8.384,-3.727 1.397,2.795 -1.397,5.59 -3.726,6.056 7.453,4.658 15.837,8.85 27.016,9.781 14.44,0.932 27.948,3.261 40.524,6.522 6.521,-1.863 13.042,-2.795 20.029,-3.261 2.329,0 3.726,-3.726 6.521,-4.658 l 0.466,-4.658 c 2.795,4.192 2.329,-1.397 0.466,-4.192 3.261,2.795 4.192,5.124 5.589,6.987 0,-1.397 3.726,-6.521 3.727,-0.466 l 0.931,-6.055 c 1.397,-0.932 1.863,5.124 3.261,0.931 1.397,-4.192 4.192,-0.932 6.987,-2.329 -0.932,1.863 -0.466,5.59 2.794,3.261 l 3.727,-3.261 c 2.329,5.59 6.055,3.261 7.918,2.329 20.495,-13.042 40.99,-28.413 60.553,-43.784 l -0.466,6.055 2.329,-7.453 c 2.329,2.329 4.192,0.466 5.124,-0.931 2.795,-4.658 6.521,-9.316 12.577,-13.508 -7.453,20.029 -16.303,35.866 -27.482,48.908 l -4.658,5.59 c 0,3.261 -0.932,7.453 -4.658,7.918 -1.863,0.466 -5.59,-0.932 -8.384,1.863 -1.397,1.863 3.261,5.59 -0.466,2.795 -3.261,-2.329 -6.521,0 -10.248,0.932 -2.795,0.932 1.863,3.726 2.795,5.589 0.932,1.863 1.863,3.726 1.398,6.056 l -5.124,-5.59 c -6.055,3.261 -9.782,9.316 -14.906,13.974 -2.329,1.863 -1.397,5.124 -1.397,7.918 -3.261,0 -6.987,-0.932 -8.85,0.932 -1.397,1.863 -0.932,4.658 -0.932,7.453 -4.658,-0.466 -5.124,-7.453 -9.315,-6.056 -4.192,0.932 -8.85,1.397 -12.577,3.727 2.795,5.59 -4.658,2.329 -3.726,3.26 -6.987,-4.192 -13.042,-7.453 -20.495,-4.658 -15.837,-5.124 -35.4,-2.795 -49.84,-0.931 0,-2.329 0.466,-4.658 -0.466,-5.124 -0.932,2.329 -3.726,1.397 -3.26,1.397 -8.85,-6.055 -17.7,-9.782 -27.016,-14.905 -8.384,0.932 -16.303,-3.261 -18.632,-5.59 -6.521,-6.055 -13.974,-2.795 -20.029,-4.192 -13.042,-3.261 -17.7,-16.769 -19.098,-26.084 -0.932,-4.658 -4.658,-6.521 -6.055,-6.056 -6.055,-19.563 -15.371,-37.263 -22.824,-55.429 -1.863,-4.658 -1.397,-9.316 -1.397,-14.44 2.329,0.932 4.658,0.466 4.192,-2.794 C 11.645,189.491 6.056,177.846 0,166.667 3.261,150.83 3.726,132.198 11.179,118.224 17.7,105.648 29.811,99.126 38.195,88.413 c 2.795,-3.726 2.795,-8.85 5.59,-12.11 9.316,-9.316 18.632,-19.098 28.879,-27.482 4.658,-3.726 10.247,0 17.234,-1.397 2.329,-8.384 11.645,-15.837 20.495,-13.508 3.726,0.932 11.179,-8.85 13.508,-9.782 3.726,-1.397 1.863,3.726 1.863,6.987 8.85,-6.987 20.961,-10.713 32.14,-14.906"
   stroke-linecap="round"
   id="path49" />
</g>
		<g
   transform="matrix(11.2873,0,0,11.2873,3e-4,0.0052)"
   id="text-0">
<path
   style="opacity:1;fill:#0080ff;fill-rule:nonzero;stroke:none;stroke-width:1;stroke-linecap:butt;stroke-linejoin:miter;stroke-miterlimit:4;stroke-dasharray:none;stroke-dashoffset:0"
   transform="translate(-20.555,14.255)"
   d="m 2.64,-26.81 0.09,-1.85 h 8.45 l 10.26,23.39 h -0.88 l 10.06,-23.39 h 7.91 l 0.14,1.85 -3.03,0.64 q -0.04,0.68 -0.02,2.56 0.02,1.88 0.07,4.03 v 0 l 0.2,8.94 q 0.05,2.44 0.1,4.07 0.05,1.64 0.09,2.59 0.05,0.95 0.1,1.49 v 0 L 39.16,-1.86 39.06,0 H 28.71 l -0.15,-1.86 2.98,-0.63 q 0.05,-0.59 0.05,-1.37 0,-0.78 0,-2.19 0,-1.42 -0.05,-3.86 v 0 l -0.09,-17.34 h 1.26 L 20.9,0.15 H 19.19 L 7.08,-27.29 h 1.27 l 0.05,16.6 q 0,4.05 0.02,5.88 0.03,1.83 0.08,2.27 v 0 L 11.82,-1.86 11.67,0 H 2.1 L 1.95,-1.86 5.27,-2.54 q 0.05,-0.34 0.08,-1.27 0.02,-0.93 0.07,-2.46 0.05,-1.54 0.05,-3.64 v 0 l 0.15,-9.67 q 0.04,-2.15 0.02,-3.93 -0.02,-1.78 -0.02,-2.61 v 0 z"
   stroke-linecap="round"
   id="path52" />
</g>
		<g
   transform="scale(2.1875)"
   id="g57">
</g>
</g>
</g>
</svg>
